<svg viewBox="0 0 820 820" xmlns="http://www.w3.org/2000/svg"><rect height="820" rx="80.01" width="820"/><g fill="#fff"><path d="m576.52 340.69c40.47-41.09 82.09-81.16 121.97-122.75 6.45-13.18-7.59-25.87-19.96-18.3l-119.06 118.82c-15.02 14.44-38.93 15.96-55.19 2.65-19.22-15.72-21.17-42.3-4.82-61l119.16-119.14c9.33-14.07-7.32-29.72-20.76-18.68-37.98 39.97-79.89 77.29-117.5 117.49-18.58 19.86-24.98 46.51-15.65 72.55 16.48 46.02 75.14 60.84 111.81 28.36z"/><path d="m222.14 122.29c-13.44-11.03-30.09 4.61-20.76 18.68l119.16 119.14c16.35 18.7 14.4 45.28-4.82 61-16.26 13.3-40.17 11.79-55.19-2.65l-119.06-118.82c-12.38-7.57-26.41 5.12-19.96 18.3 39.88 41.59 81.5 81.66 121.97 122.75 36.67 32.48 95.33 17.66 111.81-28.36 9.33-26.04 2.93-52.69-15.65-72.55-37.61-40.2-79.52-77.52-117.5-117.49z"/><path d="m591.31 411.75c-.45-.88-.78-1.76-.84-2.65.06-.88.39-1.77.84-2.65l149.35-149.66c39.09-47.4 2.12-118.52-58.75-115.21-1.16.06-4.89 1.22-5.4.45-.47-.69.6-4.78.66-6.02 1.23-23.71-11.19-48.52-30.89-61.51-26.5-17.47-61.19-15.1-85.03 5.69l-151.25 151.21-151.25-151.21c-23.84-20.78-58.53-23.16-85.03-5.69-19.7 12.99-32.11 37.8-30.89 61.51.06 1.24 1.13 5.33.66 6.02-.52.77-4.24-.39-5.4-.45-60.87-3.3-97.84 67.81-58.75 115.21l149.35 149.66c.45.88.78 1.76.84 2.65-.06.88-.39 1.77-.84 2.65l-149.35 149.66c-39.09 47.4-2.12 118.52 58.75 115.21 1.16-.06 4.89-1.22 5.4-.45.47.69-.6 4.78-.66 6.02-1.23 23.71 11.19 48.52 30.89 61.51 26.5 17.47 61.19 15.1 85.03-5.69l151.25-151.21 151.25 151.21c23.84 20.78 58.53 23.16 85.03 5.69 19.7-12.99 32.11-37.8 30.89-61.51-.06-1.24-1.13-5.33-.66-6.02.52-.77 4.24.39 5.4.45 60.87 3.3 97.84-67.81 58.75-115.21zm66.53 225.85-120.81-120.81c-13.01-10.26-29.25 4.22-20.95 18.36l122.47 122.56c32.69 38.79-15.7 90.98-56.85 61l-162.58-162.07c-3.02-2.21-6.17-3.12-9.13-3.06-2.96-.06-6.11.85-9.13 3.06l-162.58 162.07c-41.15 29.98-89.54-22.21-56.85-61l122.47-122.56c8.3-14.15-7.93-28.62-20.95-18.36l-120.81 120.81c-38.31 33.59-92.08-15.2-62.62-56.78l132.71-132.86c4.39-4.14 8.83-8.38 12.75-12.77l2.46-2.47c7.62-8.53 10.55-16.34 10.39-23.62.16-7.28-2.77-15.09-10.39-23.62l-2.46-2.47c-3.92-4.39-8.36-8.62-12.75-12.77l-132.69-132.84c-29.46-41.58 24.3-90.37 62.62-56.78l120.81 120.81c13.01 10.26 29.25-4.22 20.95-18.36l-122.47-122.56c-32.69-38.79 15.7-90.98 56.85-61l162.58 162.07c3.02 2.21 6.17 3.12 9.13 3.06 2.96.06 6.11-.85 9.13-3.06l162.58-162.07c41.15-29.98 89.54 22.21 56.85 61l-122.47 122.56c-8.3 14.15 7.93 28.62 20.95 18.36l120.81-120.81c38.31-33.59 92.08 15.2 62.62 56.78l-132.71 132.86c-4.39 4.14-8.83 8.38-12.75 12.77l-2.46 2.47c-7.62 8.53-10.55 16.34-10.39 23.62-.16 7.28 2.77 15.09 10.39 23.62l2.46 2.47c3.92 4.39 8.36 8.62 12.75 12.77l132.71 132.86c29.46 41.58-24.3 90.37-62.62 56.78z"/><path d="m576.52 477.53c-36.67-32.48-95.33-17.66-111.81 28.36-9.33 26.04-2.93 52.69 15.65 72.55 37.61 40.2 79.52 77.52 117.5 117.49 13.44 11.03 30.09-4.61 20.76-18.68l-119.16-119.14c-16.35-18.7-14.4-45.28 4.82-61 16.26-13.3 40.17-11.79 55.19 2.65l119.06 118.83c12.38 7.57 26.41-5.12 19.96-18.3-39.88-41.59-81.5-81.66-121.97-122.75z"/><path d="m243.48 477.53c-40.47 41.09-82.09 81.16-121.97 122.75-6.45 13.18 7.59 25.87 19.96 18.3l119.06-118.83c15.02-14.44 38.93-15.96 55.19-2.65 19.22 15.72 21.17 42.3 4.82 61l-119.16 119.14c-9.33 14.07 7.32 29.72 20.76 18.68 37.98-39.97 79.89-77.29 117.5-117.49 18.58-19.86 24.98-46.51 15.65-72.55-16.48-46.02-75.14-60.84-111.81-28.36z"/></g></svg>